<mxfile host="app.diagrams.net" modified="2023-03-06T16:18:41.033Z" agent="5.0 (Windows NT 10.0; Win64; x64) AppleWebKit/537.36 (KHTML, like Gecko) Chrome/110.0.0.0 Safari/537.36" etag="N1oimYulKUuR1dJrTRWZ" version="20.8.23" type="github">
  <diagram name="Page-1" id="WITd2bTF4eNHxJB7jICl">
    <mxGraphModel dx="1500" dy="830" grid="1" gridSize="10" guides="1" tooltips="1" connect="1" arrows="1" fold="1" page="1" pageScale="1" pageWidth="1600" pageHeight="1200" math="0" shadow="0">
      <root>
        <mxCell id="0" />
        <mxCell id="1" parent="0" />
        <mxCell id="L-MamAsBXwPtcWh-Zf_1-7" style="edgeStyle=orthogonalEdgeStyle;rounded=0;orthogonalLoop=1;jettySize=auto;html=1;entryX=0;entryY=0.5;entryDx=0;entryDy=0;entryPerimeter=0;fontSize=20;" edge="1" parent="1" source="L-MamAsBXwPtcWh-Zf_1-1" target="L-MamAsBXwPtcWh-Zf_1-3">
          <mxGeometry relative="1" as="geometry" />
        </mxCell>
        <mxCell id="L-MamAsBXwPtcWh-Zf_1-1" value="" style="aspect=fixed;html=1;points=[];align=center;image;fontSize=12;image=img/lib/azure2/compute/Function_Apps.svg;" vertex="1" parent="1">
          <mxGeometry x="606" y="530" width="68" height="60" as="geometry" />
        </mxCell>
        <mxCell id="L-MamAsBXwPtcWh-Zf_1-2" value="Migration function" style="text;html=1;align=center;verticalAlign=middle;resizable=0;points=[];autosize=1;strokeColor=none;fillColor=none;" vertex="1" parent="1">
          <mxGeometry x="580" y="505" width="120" height="30" as="geometry" />
        </mxCell>
        <mxCell id="L-MamAsBXwPtcWh-Zf_1-3" value="" style="strokeWidth=2;html=1;shape=mxgraph.flowchart.database;whiteSpace=wrap;" vertex="1" parent="1">
          <mxGeometry x="960" y="520" width="60" height="80" as="geometry" />
        </mxCell>
        <mxCell id="L-MamAsBXwPtcWh-Zf_1-4" value="DIS db" style="text;html=1;align=center;verticalAlign=middle;resizable=0;points=[];autosize=1;strokeColor=none;fillColor=none;" vertex="1" parent="1">
          <mxGeometry x="960" y="485" width="60" height="30" as="geometry" />
        </mxCell>
        <mxCell id="L-MamAsBXwPtcWh-Zf_1-6" value="&lt;font style=&quot;font-size: 16px;&quot;&gt;Migration function checks if needed tables &lt;br&gt;are exist and creates ones if not exists&lt;/font&gt;" style="text;html=1;align=center;verticalAlign=middle;resizable=0;points=[];autosize=1;strokeColor=none;fillColor=none;strokeWidth=1;" vertex="1" parent="1">
          <mxGeometry x="500" y="600" width="320" height="50" as="geometry" />
        </mxCell>
        <mxCell id="L-MamAsBXwPtcWh-Zf_1-8" value="UpToDateResourcesTable" style="swimlane;fontStyle=0;childLayout=stackLayout;horizontal=1;startSize=30;horizontalStack=0;resizeParent=1;resizeParentMax=0;resizeLast=0;collapsible=1;marginBottom=0;whiteSpace=wrap;html=1;strokeWidth=1;fontSize=20;" vertex="1" parent="1">
          <mxGeometry x="1080" y="485" width="270" height="150" as="geometry" />
        </mxCell>
        <mxCell id="L-MamAsBXwPtcWh-Zf_1-9" value="id" style="text;strokeColor=none;fillColor=none;align=left;verticalAlign=middle;spacingLeft=4;spacingRight=4;overflow=hidden;points=[[0,0.5],[1,0.5]];portConstraint=eastwest;rotatable=0;whiteSpace=wrap;html=1;fontSize=20;" vertex="1" parent="L-MamAsBXwPtcWh-Zf_1-8">
          <mxGeometry y="30" width="270" height="30" as="geometry" />
        </mxCell>
        <mxCell id="L-MamAsBXwPtcWh-Zf_1-10" value="resourceId&lt;span style=&quot;white-space: pre;&quot;&gt;	&lt;/span&gt;" style="text;strokeColor=none;fillColor=none;align=left;verticalAlign=middle;spacingLeft=4;spacingRight=4;overflow=hidden;points=[[0,0.5],[1,0.5]];portConstraint=eastwest;rotatable=0;whiteSpace=wrap;html=1;fontSize=20;" vertex="1" parent="L-MamAsBXwPtcWh-Zf_1-8">
          <mxGeometry y="60" width="270" height="30" as="geometry" />
        </mxCell>
        <mxCell id="L-MamAsBXwPtcWh-Zf_1-11" value="resourceJSON" style="text;strokeColor=none;fillColor=none;align=left;verticalAlign=middle;spacingLeft=4;spacingRight=4;overflow=hidden;points=[[0,0.5],[1,0.5]];portConstraint=eastwest;rotatable=0;whiteSpace=wrap;html=1;fontSize=20;" vertex="1" parent="L-MamAsBXwPtcWh-Zf_1-8">
          <mxGeometry y="90" width="270" height="30" as="geometry" />
        </mxCell>
        <mxCell id="L-MamAsBXwPtcWh-Zf_1-12" value="isSentToEngPortal" style="text;strokeColor=none;fillColor=none;align=left;verticalAlign=middle;spacingLeft=4;spacingRight=4;overflow=hidden;points=[[0,0.5],[1,0.5]];portConstraint=eastwest;rotatable=0;whiteSpace=wrap;html=1;fontSize=20;" vertex="1" parent="L-MamAsBXwPtcWh-Zf_1-8">
          <mxGeometry y="120" width="270" height="30" as="geometry" />
        </mxCell>
        <mxCell id="L-MamAsBXwPtcWh-Zf_1-13" value="ResourceChanges" style="swimlane;fontStyle=0;childLayout=stackLayout;horizontal=1;startSize=30;horizontalStack=0;resizeParent=1;resizeParentMax=0;resizeLast=0;collapsible=1;marginBottom=0;whiteSpace=wrap;html=1;strokeWidth=1;fontSize=20;" vertex="1" parent="1">
          <mxGeometry x="1080" y="320" width="270" height="150" as="geometry" />
        </mxCell>
        <mxCell id="L-MamAsBXwPtcWh-Zf_1-14" value="id" style="text;strokeColor=none;fillColor=none;align=left;verticalAlign=middle;spacingLeft=4;spacingRight=4;overflow=hidden;points=[[0,0.5],[1,0.5]];portConstraint=eastwest;rotatable=0;whiteSpace=wrap;html=1;fontSize=20;" vertex="1" parent="L-MamAsBXwPtcWh-Zf_1-13">
          <mxGeometry y="30" width="270" height="30" as="geometry" />
        </mxCell>
        <mxCell id="L-MamAsBXwPtcWh-Zf_1-15" value="resourceId&lt;span style=&quot;white-space: pre;&quot;&gt;	&lt;/span&gt;" style="text;strokeColor=none;fillColor=none;align=left;verticalAlign=middle;spacingLeft=4;spacingRight=4;overflow=hidden;points=[[0,0.5],[1,0.5]];portConstraint=eastwest;rotatable=0;whiteSpace=wrap;html=1;fontSize=20;" vertex="1" parent="L-MamAsBXwPtcWh-Zf_1-13">
          <mxGeometry y="60" width="270" height="30" as="geometry" />
        </mxCell>
        <mxCell id="L-MamAsBXwPtcWh-Zf_1-16" value="changeType [&#39;Create&#39;, &#39;Update&#39;, &#39;Delete&#39;]" style="text;strokeColor=none;fillColor=none;align=left;verticalAlign=middle;spacingLeft=4;spacingRight=4;overflow=hidden;points=[[0,0.5],[1,0.5]];portConstraint=eastwest;rotatable=0;whiteSpace=wrap;html=1;fontSize=20;" vertex="1" parent="L-MamAsBXwPtcWh-Zf_1-13">
          <mxGeometry y="90" width="270" height="30" as="geometry" />
        </mxCell>
        <mxCell id="L-MamAsBXwPtcWh-Zf_1-17" value="isSentToEngPortal" style="text;strokeColor=none;fillColor=none;align=left;verticalAlign=middle;spacingLeft=4;spacingRight=4;overflow=hidden;points=[[0,0.5],[1,0.5]];portConstraint=eastwest;rotatable=0;whiteSpace=wrap;html=1;fontSize=20;" vertex="1" parent="L-MamAsBXwPtcWh-Zf_1-13">
          <mxGeometry y="120" width="270" height="30" as="geometry" />
        </mxCell>
      </root>
    </mxGraphModel>
  </diagram>
</mxfile>
